<svg xmlns="http://www.w3.org/2000/svg" xmlns:xlink="http://www.w3.org/1999/xlink" viewBox="0 0 470.28 107.86"><defs><style>.a{fill:#2b2929;}.b{fill:url(#a);}.c,.d,.e,.f{fill-rule:evenodd;}.c{fill:url(#b);}.d{fill:url(#c);}.e{fill:url(#d);}.f{fill:url(#e);}</style><linearGradient id="a" y1="53.93" x2="107.86" y2="53.93" gradientUnits="userSpaceOnUse"><stop offset="0" stop-color="#ff00cd"/><stop offset="1" stop-color="#ff3d01"/></linearGradient><radialGradient id="b" cx="70.13" cy="54.18" r="24.19" gradientUnits="userSpaceOnUse"><stop offset="0" stop-color="#fff"/><stop offset="1" stop-color="#fbfbfb"/></radialGradient><radialGradient id="c" cx="37.71" cy="54.11" r="24.27" xlink:href="#b"/><radialGradient id="d" cx="55.86" cy="18.91" r="3.91" xlink:href="#b"/><radialGradient id="e" cx="52.07" cy="89.38" r="3.82" xlink:href="#b"/></defs><title>logo</title><path class="a" d="M165.66,50.66a11.41,11.41,0,0,0,4.43-9.29,11.51,11.51,0,0,0-6.6-10.77,18.54,18.54,0,0,0-8.11-1.39h-20.9V36h5.46V68.14h-5.46V75h21.71a21.75,21.75,0,0,0,6.9-.86,13,13,0,0,0,8.73-12.6C171.82,56.55,169.51,52.55,165.66,50.66ZM156.44,67.9h-8.3V54.71h8.79c4,0,6.57,2.49,6.57,6.5,0,2.88-1.36,5.24-3.54,6.15A9.56,9.56,0,0,1,156.44,67.9Zm-.13-20.28h-8.17V36.29h7.24a8.94,8.94,0,0,1,4,.74c1.49.85,2.34,2.63,2.34,4.9C161.76,45.44,159.67,47.62,156.31,47.62Z" transform="translate(0 -0.18)"/><path class="a" d="M187.75,68.14c-1.56,0-2.35-.53-2.35-3.46V29.21H172.18v6.65h5.21V65.05c0,6.71,3.13,10.12,9.3,10.12,1.46,0,2.72-.13,2.77-.13l.89-.09.08-7-1.1.1S188.68,68.14,187.75,68.14Z" transform="translate(0 -0.18)"/><polygon class="a" points="204.93 41.43 191.7 41.43 191.7 48.08 196.91 48.08 196.91 68.15 192.01 68.15 192.01 74.8 209.89 74.8 209.89 68.15 204.93 68.15 204.93 41.43"/><rect class="a" x="196.79" y="29.03" width="8.32" height="8.14"/><path class="a" d="M246.9,53.89c0-8.64-3.84-13-11.41-13A14.37,14.37,0,0,0,224.34,46c0-1.68-.75-4.36-5-4.36H211.3v6.65h4.84a.74.74,0,0,1,.32.05.71.71,0,0,1,0,.31V68.33h-4.9V75h17.87V68.33h-5V59.41c0-5.42,3.55-11,9.48-11,3.61,0,4.89,1.8,4.89,6.88V75h13V68.33h-5Z" transform="translate(0 -0.18)"/><path class="a" d="M281.61,67.59l-5.33-9.12a10.35,10.35,0,0,0-1.75-2.27l6.8-7.94H286V41.61H269.76v6.65h2.94l-4.57,5.38H265V29.21H251.79v6.65h5.27V68.33h-5V75h17.12V68.33H265V60.22h1.48c1.31,0,1.68.14,2.05.75l6.19,10.59c1.53,2.72,2.77,3.42,6,3.42h5.71V68.33h-3C282.08,68.33,282,68.17,281.61,67.59Z" transform="translate(0 -0.18)"/><path class="a" d="M300.46,68.14c-1.55,0-2.34-.53-2.34-3.46V29.21H284.89v6.65h5.21V65.05c0,6.71,3.13,10.12,9.31,10.12,1.46,0,2.71-.13,2.76-.13l.89-.09.09-7-1.1.1S301.39,68.14,300.46,68.14Z" transform="translate(0 -0.18)"/><path class="a" d="M321.92,40.87C311.7,40.87,304,48.33,304,58.23s7.87,17.49,17.93,17.49S339.84,68,339.84,58.23,332.13,40.87,321.92,40.87Zm0,27.65c-5.58,0-9.79-4.42-9.79-10.29s4.21-10.16,9.79-10.16,9.78,4.37,9.78,10.16S327.5,68.52,321.92,68.52Z" transform="translate(0 -0.18)"/><path class="a" d="M369.47,68.28a.57.57,0,0,1-.05-.31V54c0-8.45-4.7-13.09-13.22-13.09a21,21,0,0,0-12.53,3.94l-.66.53,3.4,6,.91-.69a15.69,15.69,0,0,1,8.39-2.83c3.88,0,5.69,1.81,5.69,5.69v.18h-1c-12.44,0-19.29,4.1-19.29,11.54,0,7.2,5.92,10.48,11.41,10.48a12,12,0,0,0,9.31-4.19c.37,2.2,2.08,3.45,4.83,3.45h7.26V68.33h-4.16A.67.67,0,0,1,369.47,68.28Zm-8-8.67v.3c0,4.42-3.06,9.16-7.62,9.16a4.3,4.3,0,0,1-4.64-4.33c0-4.24,6.37-5.13,11.71-5.13Z" transform="translate(0 -0.18)"/><path class="a" d="M406.79,68.28a.71.71,0,0,1-.05-.31V29.21H393.52v6.65h5.2v8.28a12,12,0,0,0-8.61-3.27c-9.12,0-15.25,7-15.25,17.42s5.9,17.43,14.7,17.43a12.49,12.49,0,0,0,9.64-4c.43,2.1,2.13,3.29,4.8,3.29h7.26V68.33H407.1A.71.71,0,0,1,406.79,68.28Zm-7.88-9.92c0,7.49-4.16,10.16-8.05,10.16-4.71,0-7.87-4.11-7.87-10.23s3.24-10.15,8.05-10.15C396.48,48.14,398.91,53.27,398.91,58.36Z" transform="translate(0 -0.18)"/><path class="a" d="M443.62,59c0-.07.19-1.56.19-2.42,0-9.39-5.85-15.69-14.57-15.69-9.83,0-16.69,7.16-16.69,17.42,0,10.1,7.41,17.43,17.62,17.43a20.11,20.11,0,0,0,12.89-4.6l.58-.54-3.48-6.18-.93.84a14.31,14.31,0,0,1-8.69,3.28,9.53,9.53,0,0,1-9.76-8.67h22.73ZM429.11,47.64c3.5,0,5.94,2.47,6.42,6.37H421.17C422.24,50.05,425.2,47.64,429.11,47.64Z" transform="translate(0 -0.18)"/><path class="a" d="M469.45,41.38a10.7,10.7,0,0,0-1.71-.14,10.88,10.88,0,0,0-8.92,4.87c-.05-2.09-1-4.5-5-4.5h-8.07v6.65h4.91a.27.27,0,0,1,.36.36V68.33h-4.71V75h17.38V68.33H459V61c0-5.92,2.65-11.89,8.55-11.89a7.52,7.52,0,0,1,1.5.15l1.24.31V41.52Z" transform="translate(0 -0.18)"/><rect class="b" width="107.86" height="107.86" rx="28.14" ry="28.14"/><path class="c" d="M75.2,53.09c1.34-.9,2.78-1.71,4-2.75,6.75-5.54,7.9-16.53,2.32-22.26A15,15,0,0,0,71,23.67q-6-.17-12-.23V48.87l20.71-5L55.14,84.93a81.69,81.69,0,0,0,11.18-.73c7.9-1.19,13.85-6.65,15.41-13.6C83.54,62.54,81.77,57.82,75.2,53.09Z" transform="translate(0 -0.18)"/><path class="d" d="M28.11,64.34l24.56-41-15.22-.14c-4,0-4.67.76-5.31,4.76-.86,5.36-1.85,10.69-2.79,16C27.21,56.12,25,68.21,23,80.33c-.64,3.7.22,4.61,4,4.63C34.3,85,41.65,85,49,85V59.3Z" transform="translate(0 -0.18)"/><path class="e" d="M59.05,14.68l-1-.29-5.37,9,6.38.09Z" transform="translate(0 -0.18)"/><path class="f" d="M49,85v8.69l.81.16q2.67-4.45,5.33-8.9l-1.39,0C52.17,85,50.58,85,49,85Z" transform="translate(0 -0.18)"/></svg>
