<svg xmlns="http://www.w3.org/2000/svg" xmlns:xlink="http://www.w3.org/1999/xlink" viewBox="0 0 408.43 204.7"><defs><style>.cls-1{fill:#b20a44;}.cls-2{fill:#f0efed;}.cls-3{fill:#f5f6ed;}.cls-4{fill:#c9c797;}.cls-19,.cls-4{opacity:0.5;isolation:isolate;}.cls-5{fill:none;stroke:#151011;stroke-width:1.63px;}.cls-16,.cls-5{stroke-miterlimit:10;}.cls-6{fill:#0c090a;}.cls-7{fill:url(#linear-gradient);}.cls-8{fill:#4c071d;}.cls-9{fill:url(#linear-gradient-2);}.cls-10{fill:#c9013a;}.cls-11{fill:#989279;}.cls-12,.cls-16{fill:#fff;}.cls-13{fill:#7c7a51;}.cls-14{fill:url(#linear-gradient-3);}.cls-15{fill:#151011;}.cls-16{stroke:#fff;stroke-width:1px;}.cls-17{fill:#fafcf9;}.cls-18{fill:#f0f0ed;}.cls-19{fill:#aa9cc3;}.cls-20{fill:url(#linear-gradient-4);}.cls-21{fill:#4b1118;}.cls-22{fill:url(#linear-gradient-5);}.cls-23{fill:#8d1946;}.cls-24{fill:#8b838f;}.cls-25{fill:#625378;}.cls-26{fill:url(#linear-gradient-6);}</style><linearGradient id="linear-gradient" x1="273.27" y1="521.72" x2="295.1" y2="522.43" gradientTransform="matrix(0.99, 0.11, 0.11, -0.99, -72.4, 616.5)" gradientUnits="userSpaceOnUse"><stop offset="0" stop-color="#fbfcf9"/><stop offset="0.17" stop-color="#f5f6f1"/><stop offset="0.42" stop-color="#e2e1d6"/><stop offset="0.72" stop-color="#c2bfa6"/><stop offset="1" stop-color="#989279"/></linearGradient><linearGradient id="linear-gradient-2" x1="267.81" y1="549.78" x2="285.98" y2="549.78" gradientTransform="matrix(0.99, 0.11, 0.11, -0.99, -72.4, 616.5)" gradientUnits="userSpaceOnUse"><stop offset="0" stop-color="#fbfcf9"/><stop offset="0.33" stop-color="#fafcf9" stop-opacity="0.99"/><stop offset="0.49" stop-color="#f6f7f3" stop-opacity="0.97"/><stop offset="0.6" stop-color="#f5f6ea" stop-opacity="0.93"/><stop offset="0.7" stop-color="#efede0" stop-opacity="0.88"/><stop offset="0.79" stop-color="#e7e5d1" stop-opacity="0.8"/><stop offset="0.87" stop-color="#dde0bd" stop-opacity="0.71"/><stop offset="0.94" stop-color="#d1d4aa" stop-opacity="0.61"/><stop offset="1" stop-color="#c9c797" stop-opacity="0.5"/></linearGradient><linearGradient id="linear-gradient-3" x1="313.9" y1="555.98" x2="330.15" y2="527.85" gradientTransform="matrix(0.99, 0.11, 0.11, -0.99, -72.4, 616.5)" gradientUnits="userSpaceOnUse"><stop offset="0" stop-color="#fbfcf9"/><stop offset="0.12" stop-color="#f9faf3" stop-opacity="0.98"/><stop offset="0.3" stop-color="#f1f1e6" stop-opacity="0.91"/><stop offset="0.51" stop-color="#eae9d3" stop-opacity="0.81"/><stop offset="0.76" stop-color="#d8d6b5" stop-opacity="0.67"/><stop offset="1" stop-color="#c9c797" stop-opacity="0.5"/></linearGradient><linearGradient id="linear-gradient-4" x1="273.27" y1="521.72" x2="295.1" y2="522.43" gradientTransform="matrix(0.99, 0.11, 0.11, -0.99, -72.4, 616.5)" gradientUnits="userSpaceOnUse"><stop offset="0" stop-color="#f9f9fb"/><stop offset="0.17" stop-color="#f4f3f4"/><stop offset="0.42" stop-color="#dddadc"/><stop offset="0.72" stop-color="#b8b2b8"/><stop offset="1" stop-color="#8b838f"/></linearGradient><linearGradient id="linear-gradient-5" x1="267.81" y1="549.78" x2="285.98" y2="549.78" gradientTransform="matrix(0.99, 0.11, 0.11, -0.99, -72.4, 616.5)" gradientUnits="userSpaceOnUse"><stop offset="0" stop-color="#f9f9fb"/><stop offset="0.33" stop-color="#f8f8fa" stop-opacity="0.99"/><stop offset="0.49" stop-color="#f5f4f7" stop-opacity="0.97"/><stop offset="0.6" stop-color="#efedf4" stop-opacity="0.93"/><stop offset="0.7" stop-color="#e6e3ed" stop-opacity="0.88"/><stop offset="0.79" stop-color="#dcd7e5" stop-opacity="0.8"/><stop offset="0.87" stop-color="#cdc5da" stop-opacity="0.71"/><stop offset="0.94" stop-color="#bcb0ce" stop-opacity="0.61"/><stop offset="1" stop-color="#aa9cc3" stop-opacity="0.5"/></linearGradient><linearGradient id="linear-gradient-6" x1="313.9" y1="555.98" x2="330.15" y2="527.85" gradientTransform="matrix(0.99, 0.11, 0.11, -0.99, -72.4, 616.5)" gradientUnits="userSpaceOnUse"><stop offset="0" stop-color="#f9f9fb"/><stop offset="0.12" stop-color="#f6f6f9" stop-opacity="0.98"/><stop offset="0.3" stop-color="#edeaf1" stop-opacity="0.91"/><stop offset="0.51" stop-color="#ddd9e7" stop-opacity="0.81"/><stop offset="0.76" stop-color="#c6bbd4" stop-opacity="0.67"/><stop offset="1" stop-color="#aa9cc3" stop-opacity="0.5"/></linearGradient></defs><title>logo</title><g id="Final_logo" data-name="Final logo"><g id="final_logo-2" data-name="final logo"><rect class="cls-1" x="200.74" y="0.01" width="207.69" height="204.7"/><g id="Personal_Icon" data-name="Personal Icon"><g id="Personal_Icon-2" data-name="Personal Icon-2"><path class="cls-2" d="M368.39,116.21c7,21-55,59.75-76.13,60.19-33.06.4-42.58-37.25-41.27-74.77s32.75-65.69,65.53-61.35c24.74,3.27,59.76,28.32,52.67,54.1A40.1,40.1,0,0,0,368.39,116.21Z"/><path class="cls-3" d="M266.21,167.8l4,2.83c4.94,3.7,10.24,7.41,16.73,6.69,13.63-1.55,18.29-15.94,26.85-24.46a33.53,33.53,0,0,1,17.57-9.24c6.9-1.32,14-1.08,20.84-2.75A20.75,20.75,0,0,0,368.11,127c2.07-6.93,1.08-14.58,1.12-21.71A41.11,41.11,0,0,1,370.34,94c1.08-4,3-7.53,4.35-11.35,2-5.54,0-10.64-.6-16.26h0a23.53,23.53,0,0,0-2.31-7,22.49,22.49,0,0,0-17.53-11.95,22.1,22.1,0,0,0-13.35,2.67,59.12,59.12,0,0,0-27-10,66.79,66.79,0,0,0-22.07.88,16.32,16.32,0,0,0-9.6-4.35,13.9,13.9,0,0,0-16.17,10.92,11.19,11.19,0,0,0,1.83,7.37c-8.64,9.56-14.7,23.9-17.76,43.82a105.47,105.47,0,0,0,10.47,59.52A68.4,68.4,0,0,0,266.21,167.8Z"/><path class="cls-4" d="M273.1,82.55,276.49,80l3-6.74-9,.56L264.1,78.6l-3,5.86,2.19,1.39C266.85,82.39,270.39,79.12,273.1,82.55Z"/><path class="cls-4" d="M302.22,85.85l-3.74-3.38c4.82-3.59,9.16-6,12.55-5.62a19.24,19.24,0,0,1,14.74,4.5,13.68,13.68,0,0,1,6.45,13.23l-10.92-5A14.5,14.5,0,0,0,302.22,85.85Z"/><path class="cls-5" d="M268.08,81.87a3.55,3.55,0,0,1,5,.43,1.47,1.47,0,0,1,.1.13,3.54,3.54,0,0,0-5-.66Z"/><path class="cls-5" d="M302.22,85.85c8.53-3.66,14.86-1.83,19.08,3.71A14.66,14.66,0,0,0,302.22,85.85Z"/><path class="cls-6" d="M265.77,102.27A21.69,21.69,0,0,0,281,116.45l11-1.4,15.94,5.38,2.15,7-4.58,16.18-8.17,15.25-9.12,12.55-6.89,2.87-7.61-7.09-3-6.06,3.75-5.81,1.59-5.06,1.39-11.55-2.35-14.3-5.61-10.28Z"/><polygon class="cls-7" points="257.8 114.3 256.69 124.38 261.59 126.89 269.71 123.38 273.22 130.39 276.37 150.67 277.84 133.86 275.25 121.55 269.83 107.64 257.8 114.3"/><polygon class="cls-8" points="280.03 128.92 278.04 147.12 274.22 165.09 278.6 169.27 288.32 171.46 297.68 154.25 304.97 131.67 300.03 132.98 280.03 128.92"/><path class="cls-9" d="M272.07,101a14.67,14.67,0,0,1-14.39,13.27c-5-.56-4.7-6.14-3.7-15.26s5.62-13.59,10.6-13S273.18,91.91,272.07,101Z"/><polygon class="cls-10" points="290.03 130.03 270.87 161.19 274.22 165.09 280.07 163.89 282.7 162.78 289.39 162.58 294.41 156.68 295.13 150.27 297.52 140.95 300.03 132.98 290.03 130.03"/><path class="cls-4" d="M313.62,152.86a33.5,33.5,0,0,1,17.56-9.24c6.9-1.32,14-1.08,20.84-2.75A20.75,20.75,0,0,0,368,127c2.07-6.93,1.08-14.58,1.12-21.71A41.11,41.11,0,0,1,370.18,94c1.08-4,2.95-7.53,4.35-11.35,2-5.5,0-10.68-.6-16.26h0l-6.26,28.21.52,23.34-12.47,19.32-34.5.36-9,8.53-21.79,29.2,7.25-2.87C301.27,167.8,309.55,157,313.62,152.86Z"/><polygon class="cls-11" points="281.43 174.33 290.31 175.33 299.83 163.85 306.96 156.64 311.58 150.79 330.27 124.85 310.19 127.48 297.44 158.91 281.43 174.33"/><path class="cls-12" d="M351.74,75.5l19.92-15.94a53.28,53.28,0,0,1-4,35.18C364.61,84,359.19,77.89,351.74,75.5Z"/><polygon class="cls-4" points="293.66 63.5 288.72 74.3 284.14 75.3 284.57 71.19 293.66 63.5"/><polygon class="cls-13" points="310.19 127.48 308.04 120.43 291.94 115.05 329.51 119.2 330.27 124.85 310.19 127.48"/><path class="cls-14" d="M309.43,85.45c-4.3-.47-19-1-24.18-1.55a16.61,16.61,0,1,0-3.86,33l.24,0c4.46.47,41.15,3.66,47.8,2.27A13.68,13.68,0,0,0,339.71,107C340.78,97.8,318.79,86.49,309.43,85.45Z"/><ellipse class="cls-15" cx="269.23" cy="95.08" rx="5.26" ry="6.85" transform="translate(145.23 352.27) rotate(-83.71)"/></g><path class="cls-16" d="M258,90.83a24.65,24.65,0,0,0-31.07-3.42c-.4.24,0,.87.36.63a23.92,23.92,0,0,1,30.2,3.31.36.36,0,0,0,.51,0A.36.36,0,0,0,258,90.83Z"/><path class="cls-16" d="M387.16,99.36c-22-12.79-43.43-11.32-64.3,3-.4.23,0,.87.36.59C343.85,88.84,365,87.33,387,100c.39.23.75-.4.35-.6Z"/><path class="cls-16" d="M260.35,98.36c-11.39-5.93-21.83-3.74-31.07,5a.37.37,0,0,0,.52.52c9-8.53,19.08-10.64,30.19-4.86C260.43,99,260.79,98.56,260.35,98.36Z"/><path class="cls-16" d="M257.84,93.26a24.83,24.83,0,0,0-31.27,2.51c-.36.32,0,.84.52.52a24.14,24.14,0,0,1,30.4-2.43c.35.24.75-.36.35-.6Z"/><path class="cls-16" d="M393.45,125.69c-17.29-18.33-38.2-24.3-62.27-16.33a.38.38,0,0,0-.26.45.37.37,0,0,0,.46.26c23.91-8,44.34-2.11,61.55,15.94C393.25,126.37,393.45,125.69,393.45,125.69Z"/><path class="cls-16" d="M392.89,111.87Q363.25,88,329.15,104.82c-.4.19,0,.79.36.59,22.39-11,43.54-8.72,63.06,6.93.36.32.84-.19.48-.47Z"/></g><rect class="cls-17" width="203.4" height="204.7"/><rect class="cls-17" x="12.28" y="13.68" width="29.74" height="29.74"/><rect class="cls-17" x="42.03" y="13.68" width="29.74" height="29.74"/><rect class="cls-17" x="71.77" y="13.68" width="29.74" height="29.74"/><rect class="cls-17" x="101.51" y="13.68" width="29.74" height="29.74"/><rect class="cls-17" x="131.25" y="13.68" width="29.74" height="29.74"/><rect class="cls-17" x="161" y="13.68" width="29.74" height="29.74"/><rect class="cls-17" x="12.28" y="43.42" width="29.74" height="29.74"/><rect class="cls-17" x="42.03" y="43.42" width="29.74" height="29.74"/><rect class="cls-17" x="71.77" y="43.42" width="29.74" height="29.74"/><rect class="cls-17" x="101.51" y="43.42" width="29.74" height="29.74"/><rect class="cls-17" x="131.25" y="43.42" width="29.74" height="29.74"/><rect class="cls-17" x="161" y="43.42" width="29.74" height="29.74"/><rect class="cls-17" x="12.28" y="73.17" width="29.74" height="29.74"/><rect class="cls-17" x="42.03" y="73.17" width="29.74" height="29.74"/><rect class="cls-17" x="71.77" y="73.17" width="29.74" height="29.74"/><rect class="cls-17" x="101.51" y="73.17" width="29.74" height="29.74"/><rect class="cls-17" x="131.25" y="73.17" width="29.74" height="29.74"/><rect class="cls-17" x="161" y="73.17" width="29.74" height="29.74"/><rect class="cls-17" x="12.28" y="102.91" width="29.74" height="29.74"/><rect class="cls-17" x="42.03" y="102.91" width="29.74" height="29.74"/><rect class="cls-17" x="71.77" y="102.91" width="29.74" height="29.74"/><rect class="cls-17" x="101.51" y="102.91" width="29.74" height="29.74"/><rect class="cls-17" x="131.25" y="102.91" width="29.74" height="29.74"/><rect class="cls-17" x="161" y="102.91" width="29.74" height="29.74"/><rect class="cls-17" x="12.28" y="132.65" width="29.74" height="29.74"/><rect class="cls-17" x="42.03" y="132.65" width="29.74" height="29.74"/><rect class="cls-17" x="71.77" y="132.65" width="29.74" height="29.74"/><rect class="cls-17" x="101.51" y="132.65" width="29.74" height="29.74"/><rect class="cls-17" x="131.25" y="132.65" width="29.74" height="29.74"/><rect class="cls-17" x="161" y="132.65" width="29.74" height="29.74"/><rect class="cls-17" x="12.28" y="162.39" width="29.74" height="29.74"/><rect class="cls-17" x="42.03" y="162.39" width="29.74" height="29.74"/><rect class="cls-17" x="71.77" y="162.39" width="29.74" height="29.74"/><rect class="cls-17" x="101.51" y="162.39" width="29.74" height="29.74"/><rect class="cls-17" x="131.25" y="162.39" width="29.74" height="29.74"/><rect class="cls-17" x="161" y="162.39" width="29.74" height="29.74"/><path class="cls-1" d="M58,57.3A86.3,86.3,0,0,0,63.49,65H50a62.87,62.87,0,0,0-3.58-6.58l-8-12.84L33.2,50.78V57.3A58.71,58.71,0,0,0,33.61,65h-11a58.62,58.62,0,0,0,.42-7.67V29.54a56.5,56.5,0,0,0-.42-7.66h11a57.58,57.58,0,0,0-.41,7.66v9.17l10.3-11A31.41,31.41,0,0,0,48,21.88H62c-.93.93-1.29,1.35-2,2.07l-3.62,3.63L45.52,38.92Z"/><path class="cls-1" d="M124.45,43.19c0,13.67-9.08,22.74-22.78,22.74S79,57.07,79,43.35s8.91-22.43,22.78-22.43S124.45,29.62,124.45,43.19Zm-11.73.1c0-8.39-4.17-13.46-11-13.46S90.62,35,90.62,43.29,94.85,57,101.73,57,112.72,51.79,112.72,43.29Z"/><path class="cls-1" d="M169.79,65a47.31,47.31,0,0,0-2.71-8.08c-1.77-4.5-2.43-5.7-3.82-6.84A6.3,6.3,0,0,0,159,48.71h-5.64V57.2a51.44,51.44,0,0,0,.44,7.82H141.86a48.14,48.14,0,0,0,.44-7.77V29.39a51.94,51.94,0,0,0-.44-7.61c2.43.1,4.48.15,8.24.15h14.38c9,0,14.16,4.35,14.16,11.81,0,3.68-1.1,6.58-3.26,8.49-1.38,1.2-2.55,1.76-5.26,2.59,2.82.83,4.1,2,5.87,5.7.83,1.66,1.6,3.42,4.09,9,.61,1.45,1.27,2.75,2.65,5.49Zm-7.85-25.17c3.26,0,5.25-1.86,5.25-4.82s-1.77-4.4-5.2-4.4h-8.68v9.22Z"/><path class="cls-1" d="M35,110.78a6.77,6.77,0,0,0,1.55,4c1.43,1.63,3.93,2.55,7,2.55,4.59,0,7.33-1.84,7.33-4.87a4.05,4.05,0,0,0-2.51-3.79c-1.25-.54-2.74-.92-8.93-2.22-5.48-1.08-7.39-1.73-9.59-3.14a11.87,11.87,0,0,1-5.78-10.39c0-8.33,7.39-13.58,19.12-13.58,7.57,0,13.35,2.11,16.56,6.17a14.36,14.36,0,0,1,3,6.49L50.09,93.25c-.71-3.52-2.86-5-7.38-5-3.64,0-6.32,1.79-6.32,4.27,0,1.52.9,2.66,2.8,3.47,1.19.49,1.19.49,8.22,1.78,4.53.87,7.39,1.79,9.65,3.09a11.84,11.84,0,0,1,6.43,11,12.87,12.87,0,0,1-4.17,10c-3.45,3-8.69,4.6-15.66,4.6-5.06,0-10.07-1-13.29-2.65a13.21,13.21,0,0,1-6.43-6.92,19.08,19.08,0,0,1-1.31-5Z"/><path class="cls-1" d="M121,81.36a49.49,49.49,0,0,0-.41,7.67v27.76a55.14,55.14,0,0,0,.41,7.66H109.82a48.69,48.69,0,0,0,.42-7.66V106.74H92.78v10.05a53.16,53.16,0,0,0,.42,7.66H82.06a49.11,49.11,0,0,0,.42-7.66V89a50.6,50.6,0,0,0-.42-7.67H93.2A55.7,55.7,0,0,0,92.78,89v8.6h17.46V89a47.64,47.64,0,0,0-.42-7.67Z"/><path class="cls-1" d="M180.44,80.84a53.45,53.45,0,0,0-.4,7.83v17.81c0,11.81-7,18.49-19.38,18.49-6.35,0-11.53-1.81-14.6-5.07s-4.52-7.72-4.52-13.52V88.67a52.5,52.5,0,0,0-.4-7.83H152.2a49.91,49.91,0,0,0-.4,7.83v17.81c0,6.53,2.92,9.63,8.91,9.63,6.15,0,9.07-3.1,9.07-9.63V88.67a51.33,51.33,0,0,0-.41-7.83Z"/><path class="cls-1" d="M47.39,162c1.5,2.23,2.48,3.88,3.73,6.16-.21-2.38-.31-4.76-.31-7.66V148.72a56.26,56.26,0,0,0-.42-7.87h11a56.45,56.45,0,0,0-.41,7.87v27.5a63.43,63.43,0,0,0,.41,7.72H50.08a55.18,55.18,0,0,0-3.88-6.58l-9.59-14.45a62.12,62.12,0,0,1-3.72-6.37,73.9,73.9,0,0,1,.36,7.72v11.6a57,57,0,0,0,.41,8.08h-11a53.41,53.41,0,0,0,.42-8.13V148.57a57.82,57.82,0,0,0-.42-7.72H33.87a34.46,34.46,0,0,0,3.68,6.47Z"/><path class="cls-1" d="M111.56,183.94a44.31,44.31,0,0,0-1.24-5.6l-1.4-4.4H94.16l-1.4,4.4a30.37,30.37,0,0,0-1.3,5.6H79.34a50.45,50.45,0,0,0,2.49-6.32L93,146.44a31,31,0,0,0,1.65-5.59h13.52a41.64,41.64,0,0,0,1.76,5.59l11.24,31.18c1,2.74,1.82,4.87,2.49,6.32Zm-10.1-34.24-4.82,15.54h9.74Z"/><path class="cls-1" d="M141.91,148.43a42.05,42.05,0,0,0-.49-7.58c2.19.1,3.55.15,8.09.15h11.42c6.72,0,12.13,1.76,15.79,5.11,4,3.72,6,9.14,6,16,0,7.07-2.19,12.74-6.34,16.67-3.66,3.4-8.85,5.16-15.35,5.16H149.51c-4.21,0-5.74.05-8,.15a46.2,46.2,0,0,0,.44-7.53Zm18.14,26.48c3.55,0,6.07-.88,8-2.74,2.24-2.16,3.44-5.62,3.44-9.91s-1-7.58-3.17-9.59c-1.91-1.81-4.54-2.64-8.47-2.64h-7.16v24.88Z"/><g id="Personal_Icon-2-2" data-name="Personal Icon"><g id="Personal_Icon-2-3" data-name="Personal Icon-2"><path class="cls-18" d="M368.39,116.21c7,21-55,59.75-76.13,60.19-33.06.4-42.58-37.25-41.27-74.77s32.75-65.69,65.53-61.35c24.74,3.27,59.76,28.32,52.67,54.1A40.1,40.1,0,0,0,368.39,116.21Z"/><path class="cls-17" d="M266.21,167.8l4,2.83c4.94,3.7,10.24,7.41,16.73,6.69,13.63-1.55,18.29-15.94,26.85-24.46a33.53,33.53,0,0,1,17.57-9.24c6.9-1.32,14-1.08,20.84-2.75A20.75,20.75,0,0,0,368.11,127c2.07-6.93,1.08-14.58,1.12-21.71A41.11,41.11,0,0,1,370.34,94c1.08-4,3-7.53,4.35-11.35,2-5.54,0-10.64-.6-16.26h0a23.53,23.53,0,0,0-2.31-7,22.49,22.49,0,0,0-17.53-11.95,22.1,22.1,0,0,0-13.35,2.67,59.12,59.12,0,0,0-27-10,66.79,66.79,0,0,0-22.07.88,16.32,16.32,0,0,0-9.6-4.35,13.9,13.9,0,0,0-16.17,10.92,11.19,11.19,0,0,0,1.83,7.37c-8.64,9.56-14.7,23.9-17.76,43.82a105.47,105.47,0,0,0,10.47,59.52A68.4,68.4,0,0,0,266.21,167.8Z"/><path class="cls-19" d="M273.1,82.55,276.49,80l3-6.74-9,.56L264.1,78.6l-3,5.86,2.19,1.39C266.85,82.39,270.39,79.12,273.1,82.55Z"/><path class="cls-19" d="M302.22,85.85l-3.74-3.38c4.82-3.59,9.16-6,12.55-5.62a19.24,19.24,0,0,1,14.74,4.5,13.68,13.68,0,0,1,6.45,13.23l-10.92-5A14.5,14.5,0,0,0,302.22,85.85Z"/><path class="cls-5" d="M268.08,81.87a3.55,3.55,0,0,1,5,.43,1.47,1.47,0,0,1,.1.13,3.54,3.54,0,0,0-5-.66Z"/><path class="cls-5" d="M302.22,85.85c8.53-3.66,14.86-1.83,19.08,3.71A14.66,14.66,0,0,0,302.22,85.85Z"/><path class="cls-6" d="M265.77,102.27A21.69,21.69,0,0,0,281,116.45l11-1.4,15.94,5.38,2.15,7-4.58,16.18-8.17,15.25-9.12,12.55-6.89,2.87-7.61-7.09-3-6.06,3.75-5.81,1.59-5.06,1.39-11.55-2.35-14.3-5.61-10.28Z"/><polygon class="cls-20" points="257.8 114.3 256.69 124.38 261.59 126.89 269.71 123.38 273.22 130.39 276.37 150.67 277.84 133.86 275.25 121.55 269.83 107.64 257.8 114.3"/><polygon class="cls-21" points="280.03 128.92 278.04 147.12 274.22 165.09 278.6 169.27 288.32 171.46 297.68 154.25 304.97 131.67 300.03 132.98 280.03 128.92"/><path class="cls-22" d="M272.07,101a14.67,14.67,0,0,1-14.39,13.27c-5-.56-4.7-6.14-3.7-15.26s5.62-13.59,10.6-13S273.18,91.91,272.07,101Z"/><polygon class="cls-23" points="290.03 130.03 270.87 161.19 274.22 165.09 280.07 163.89 282.7 162.78 289.39 162.58 294.41 156.68 295.13 150.27 297.52 140.95 300.03 132.98 290.03 130.03"/><path class="cls-19" d="M313.62,152.86a33.5,33.5,0,0,1,17.56-9.24c6.9-1.32,14-1.08,20.84-2.75A20.75,20.75,0,0,0,368,127c2.07-6.93,1.08-14.58,1.12-21.71A41.11,41.11,0,0,1,370.18,94c1.08-4,2.95-7.53,4.35-11.35,2-5.5,0-10.68-.6-16.26h0l-6.26,28.21.52,23.34-12.47,19.32-34.5.36-9,8.53-21.79,29.2,7.25-2.87C301.27,167.8,309.55,157,313.62,152.86Z"/><polygon class="cls-24" points="281.43 174.33 290.31 175.33 299.83 163.85 306.96 156.64 311.58 150.79 330.27 124.85 310.19 127.48 297.44 158.91 281.43 174.33"/><path class="cls-12" d="M351.74,75.5l19.92-15.94a53.28,53.28,0,0,1-4,35.18C364.61,84,359.19,77.89,351.74,75.5Z"/><polygon class="cls-19" points="293.66 63.5 288.72 74.3 284.14 75.3 284.57 71.19 293.66 63.5"/><polygon class="cls-25" points="310.19 127.48 308.04 120.43 291.94 115.05 329.51 119.2 330.27 124.85 310.19 127.48"/><path class="cls-26" d="M309.43,85.45c-4.3-.47-19-1-24.18-1.55a16.61,16.61,0,1,0-3.86,33l.24,0c4.46.47,41.15,3.66,47.8,2.27A13.68,13.68,0,0,0,339.71,107C340.78,97.8,318.79,86.49,309.43,85.45Z"/><ellipse class="cls-15" cx="269.23" cy="95.08" rx="5.26" ry="6.85" transform="translate(145.23 352.27) rotate(-83.71)"/></g><path class="cls-16" d="M258,90.83a24.65,24.65,0,0,0-31.07-3.42c-.4.24,0,.87.36.63a23.92,23.92,0,0,1,30.2,3.31.36.36,0,0,0,.51,0A.36.36,0,0,0,258,90.83Z"/><path class="cls-16" d="M387.16,99.36c-22-12.79-43.43-11.32-64.3,3-.4.23,0,.87.36.59C343.85,88.84,365,87.33,387,100c.39.23.75-.4.35-.6Z"/><path class="cls-16" d="M260.35,98.36c-11.39-5.93-21.83-3.74-31.07,5a.37.37,0,0,0,.52.52c9-8.53,19.08-10.64,30.19-4.86C260.43,99,260.79,98.56,260.35,98.36Z"/><path class="cls-16" d="M257.84,93.26a24.83,24.83,0,0,0-31.27,2.51c-.36.32,0,.84.52.52a24.14,24.14,0,0,1,30.4-2.43c.35.24.75-.36.35-.6Z"/><path class="cls-16" d="M393.45,125.69c-17.29-18.33-38.2-24.3-62.27-16.33a.38.38,0,0,0-.26.45.37.37,0,0,0,.46.26c23.91-8,44.34-2.11,61.55,15.94C393.25,126.37,393.45,125.69,393.45,125.69Z"/><path class="cls-16" d="M392.89,111.87Q363.25,88,329.15,104.82c-.4.19,0,.79.36.59,22.39-11,43.54-8.72,63.06,6.93.36.32.84-.19.48-.47Z"/></g></g></g></svg>